<svg xmlns="http://www.w3.org/2000/svg" width="136" height="40" viewBox="0 0 136 40"><defs><linearGradient id="w8d9a" x1="31.06" x2="14.28" y1="-95.48" y2="-78.7" gradientUnits="userSpaceOnUse"><stop offset="0" stop-color="#00a0ff"/><stop offset=".01" stop-color="#00a1ff"/><stop offset=".26" stop-color="#00beff"/><stop offset=".51" stop-color="#00d2ff"/><stop offset=".76" stop-color="#00dfff"/><stop offset="1" stop-color="#00e3ff"/></linearGradient><linearGradient id="w8d9b" x1="43.1" x2="18.9" y1="-84.15" y2="-84.15" gradientUnits="userSpaceOnUse"><stop offset="0" stop-color="#ffe000"/><stop offset=".41" stop-color="#ffbd00"/><stop offset=".78" stop-color="orange"/><stop offset="1" stop-color="#ff9c00"/></linearGradient><linearGradient id="w8d9c" x1="25.74" x2="3" y1="-90.23" y2="-67.47" gradientUnits="userSpaceOnUse"><stop offset="0" stop-color="#ff3a44"/><stop offset="1" stop-color="#c31162"/></linearGradient><linearGradient id="w8d9d" x1="8.22" x2="18.38" y1="-95.7" y2="-85.54" gradientUnits="userSpaceOnUse"><stop offset="0" stop-color="#32a071"/><stop offset=".07" stop-color="#2da771"/><stop offset=".48" stop-color="#15cf74"/><stop offset=".8" stop-color="#06e775"/><stop offset="1" stop-color="#00f076"/></linearGradient></defs><g><g><g><path d="M130.311 39.63H5.012C2.257 39.63 0 37.4 0 34.674V4.953C0 2.23 2.257 0 5.012 0h125.299c2.756 0 5.012 2.23 5.012 4.953v29.722c0 2.724-2.256 4.954-5.012 4.954z"/></g><g><path fill="#a6a6a6" d="M135.323 4.953v29.722c0 2.724-2.256 4.954-5.012 4.954H5.012C2.257 39.63 0 37.4 0 34.675V4.953C0 2.23 2.257 0 5.012 0h125.299c2.756 0 5.012 2.23 5.012 4.953zM5.012.794C2.692.794.804 2.66.804 4.954v29.721c0 2.294 1.888 4.16 4.208 4.16h125.299c2.321 0 4.209-1.866 4.209-4.16V4.953c0-2.293-1.888-4.159-4.209-4.159z"/></g><g><g><path fill="#fff" d="M47.531 10.15c0 .826-.25 1.488-.744 1.983-.567.585-1.307.88-2.213.88-.865 0-1.605-.3-2.211-.89-.608-.6-.911-1.335-.911-2.216 0-.88.303-1.616.911-2.21.606-.596 1.346-.896 2.211-.896.431 0 .842.088 1.235.252.39.164.709.387.939.662l-.523.523c-.403-.47-.95-.7-1.651-.7-.631 0-1.179.217-1.644.656-.459.441-.69 1.012-.69 1.713 0 .701.231 1.277.69 1.718a2.336 2.336 0 0 0 1.644.657c.671 0 1.235-.223 1.679-.662.294-.29.46-.692.504-1.205h-2.183V9.7h2.912c.035.155.045.305.045.45z"/><path fill="none" stroke="#fff" stroke-miterlimit="20" stroke-width=".16" d="M47.531 10.15c0 .826-.25 1.488-.744 1.983-.567.585-1.307.88-2.213.88-.865 0-1.605-.3-2.211-.89-.608-.6-.911-1.335-.911-2.216 0-.88.303-1.616.911-2.21.606-.596 1.346-.896 2.211-.896.431 0 .842.088 1.235.252.39.164.709.387.939.662l-.523.523c-.403-.47-.95-.7-1.651-.7-.631 0-1.179.217-1.644.656-.459.441-.69 1.012-.69 1.713 0 .701.231 1.277.69 1.718a2.336 2.336 0 0 0 1.644.657c.671 0 1.235-.223 1.679-.662.294-.29.46-.692.504-1.205h-2.183v0V9.7v0h2.912c.035.155.045.305.045.45z"/></g></g><g><g><path fill="#fff" d="M52.151 7.667h-2.735V9.55h2.466v.716h-2.466v1.882h2.735v.73h-3.509v-5.94h3.509z"/><path fill="none" stroke="#fff" stroke-miterlimit="20" stroke-width=".16" d="M52.151 7.667v0h-2.735V9.55h2.466v.716h-2.466v1.882h2.735v.73h-3.509v0-5.94 0h3.509v0z"/></g></g><g><g><path fill="#fff" d="M55.411 12.877h-.774v-5.21h-1.678v-.73h4.131v.73h-1.679z"/><path fill="none" stroke="#fff" stroke-miterlimit="20" stroke-width=".16" d="M55.411 12.877v0h-.774v0-5.21 0h-1.678v0-.73 0h4.131v.73h-1.679v0z"/></g></g><g><g><path fill="#fff" d="M60.08 12.877v-5.94h.773v5.94z"/><path fill="none" stroke="#fff" stroke-miterlimit="20" stroke-width=".16" d="M60.08 12.877v0-5.94 0h.773v5.94z"/></g></g><g><g><path fill="#fff" d="M64.28 12.877h-.768v-5.21h-1.684v-.73h4.136v.73H64.28z"/><path fill="none" stroke="#fff" stroke-miterlimit="20" stroke-width=".16" d="M64.28 12.877v0h-.768v0-5.21 0h-1.684v0-.73 0h4.136v.73H64.28v0z"/></g></g><g><g><path fill="#fff" d="M69.277 9.907c0-.692.226-1.263.67-1.708a2.228 2.228 0 0 1 1.636-.667c.641 0 1.189.223 1.63.667.445.445.67 1.016.67 1.708s-.225 1.263-.67 1.708a2.216 2.216 0 0 1-1.63.667c-.647 0-1.19-.223-1.636-.667-.444-.445-.67-1.016-.67-1.708zm5.394 0c0-.866-.294-1.596-.891-2.2-.592-.606-1.327-.906-2.197-.906-.881 0-1.616.3-2.208.901-.592.6-.886 1.335-.886 2.205 0 .871.294 1.606.886 2.206.592.6 1.327.9 2.208.9.875 0 1.61-.3 2.202-.9.592-.6.886-1.335.886-2.206z"/><path fill="none" stroke="#fff" stroke-miterlimit="20" stroke-width=".16" d="M69.277 9.907c0-.692.226-1.263.67-1.708a2.228 2.228 0 0 1 1.636-.667c.641 0 1.189.223 1.63.667.445.445.67 1.016.67 1.708s-.225 1.263-.67 1.708a2.216 2.216 0 0 1-1.63.667c-.647 0-1.19-.223-1.636-.667-.444-.445-.67-1.016-.67-1.708zm5.394 0c0-.866-.294-1.596-.891-2.2-.592-.606-1.327-.906-2.197-.906-.881 0-1.616.3-2.208.901-.592.6-.886 1.335-.886 2.205 0 .871.294 1.606.886 2.206.592.6 1.327.9 2.208.9.875 0 1.61-.3 2.202-.9.592-.6.886-1.335.886-2.206z"/></g></g><g><g><path fill="#fff" d="M75.758 12.877v-5.94h.939l2.922 4.62h.034l-.034-1.142V6.937h.773v5.94h-.807L76.526 8.03h-.034l.034 1.146v3.701z"/><path fill="none" stroke="#fff" stroke-miterlimit="20" stroke-width=".16" d="M75.758 12.877v0-5.94 0h.939v0l2.922 4.62v0h.034v0l-.034-1.142v0-3.478 0h.773v5.94h-.807v0L76.526 8.03v0h-.034v0l.034 1.146v3.701z"/></g></g><g><path fill="#fff" d="M107.19 17.338h1.875v12.384h-1.875zm18.931 4.46l-5.143 11.677h-1.953l1.904-4.174-3.338-7.503h2.016l2.222 5.37h.064l2.149-5.37zm-10.463 4.556c-.5-.236-.886-.416-1.709-.416-.92 0-1.983.368-1.983 1.327 0 .75.852 1.05 1.464 1.05a2.261 2.261 0 0 0 2.228-1.96zm1.805-1.403v4.751h-1.805v-.957h-.064c-.436.652-1.13 1.213-2.388 1.213-1.646 0-3.109-1.068-3.109-2.728 0-1.814 1.821-2.786 3.607-2.786.891 0 1.615.286 1.954.48v-.13c-.015-1.018-.999-1.594-1.969-1.594-.694 0-1.35.223-1.708.91l-1.658-.687c.577-1.306 1.982-1.896 3.332-1.896 2.149 0 3.808 1.23 3.808 3.424zm-13.171-3.768c0-.977-.797-2.123-2.193-2.123h-2.662v4.247h2.662c1.396 0 2.193-1.166 2.193-2.124zm1.871 0c0 2.362-2.037 3.846-4.113 3.846h-2.613v4.693h-1.87V17.338h4.483c2.071 0 4.113 1.484 4.113 3.845zM79.889 25.78c0-1.485-1.004-2.569-2.277-2.569-1.292 0-2.373 1.084-2.373 2.57 0 1.47 1.081 2.54 2.373 2.54 1.273 0 2.277-1.07 2.277-2.54zm-.133-3.972h1.777v7.567c0 3.11-1.855 4.387-4.053 4.387-2.065 0-3.309-1.374-3.779-2.49l1.631-.674c.293.688 1.003 1.505 2.148 1.505 1.405 0 2.276-.866 2.276-2.477v-.604h-.063c-.421.508-1.224.957-2.241.957-2.136 0-4.088-1.838-4.088-4.199 0-2.376 1.952-4.228 4.088-4.228 1.017 0 1.82.446 2.241.938h.063zm3.07-4.469H84.7v12.384h-1.874zm8.447 6.733c-.21-.526-.842-.894-1.586-.894-.95 0-2.275.832-2.227 2.457zm2.198.64l-5.702 2.331c.436.847 1.116 1.277 2.065 1.277.954 0 1.615-.465 2.1-1.166l1.453.958c-.465.687-1.595 1.867-3.553 1.867-2.422 0-4.229-1.853-4.229-4.213 0-2.507 1.825-4.214 4.018-4.214 2.213 0 3.299 1.737 3.651 2.68zm-39.523-1.869c.063.32.098.703.098 1.12 0 1.34-.372 2.998-1.567 4.178-1.165 1.2-2.647 1.838-4.621 1.838-3.651 0-6.719-2.936-6.719-6.545s3.068-6.545 6.719-6.545c2.018 0 3.456.784 4.538 1.804l-1.277 1.262c-.773-.72-1.821-1.276-3.261-1.276a4.722 4.722 0 0 0-4.747 4.755 4.723 4.723 0 0 0 4.747 4.756c1.728 0 2.712-.688 3.343-1.307.519-.513.857-1.248.984-2.249h-4.327v-1.79zm7.42 2.923c0-1.52-1.111-2.555-2.403-2.555-1.293 0-2.408 1.035-2.408 2.555 0 1.5 1.115 2.554 2.408 2.554 1.292 0 2.403-1.054 2.403-2.554zm1.875 0c0 2.424-1.92 4.213-4.278 4.213-2.359 0-4.278-1.789-4.278-4.213 0-2.443 1.919-4.214 4.278-4.214 2.358 0 4.278 1.771 4.278 4.214zm7.464 0c0-1.52-1.117-2.555-2.409-2.555-1.291 0-2.403 1.035-2.403 2.555 0 1.5 1.112 2.554 2.403 2.554 1.292 0 2.409-1.054 2.409-2.554zm1.874 0c0 2.424-1.923 4.213-4.283 4.213-2.354 0-4.277-1.789-4.277-4.213 0-2.443 1.923-4.214 4.277-4.214 2.36 0 4.283 1.771 4.283 4.214z"/></g><g><g><path fill="url(#w8d9a)" d="M10.46 7.47c-.294.303-.464.778-.464 1.392v21.91c0 .614.17 1.088.464 1.393l.073.067L22.955 19.96v-.289L10.533 7.397z"/></g></g><g><g><path fill="url(#w8d9b)" d="M27.091 24.052l-4.136-4.093v-.289l4.141-4.093.093.053 4.904 2.758c1.4.782 1.4 2.07 0 2.858L27.189 24z"/></g></g><g><g><path fill="url(#w8d9c)" d="M27.189 24l-4.234-4.186L10.46 32.165c.465.483 1.223.541 2.085.058L27.189 24"/></g></g><g><g><path fill="url(#w8d9d)" d="M27.189 15.63L12.545 7.406c-.862-.478-1.62-.42-2.085.063l12.495 12.345z"/></g></g></g></g></svg>