<svg xmlns="http://www.w3.org/2000/svg" width="16" height="15" viewBox="0 0 16 15"><g><g><g><g><g><path fill="#e1306c" d="M13.972 10.86a2.812 2.812 0 0 1-2.809 2.81H4.442a2.812 2.812 0 0 1-2.809-2.81V4.14a2.812 2.812 0 0 1 2.809-2.81h6.721a2.812 2.812 0 0 1 2.809 2.81zM11.163 0H4.442a4.144 4.144 0 0 0-4.14 4.14v6.72A4.144 4.144 0 0 0 4.442 15h6.721a4.144 4.144 0 0 0 4.14-4.14V4.14A4.144 4.144 0 0 0 11.162 0z"/></g><g><path fill="#e1306c" d="M7.802 9.43a1.933 1.933 0 0 1-1.93-1.93c0-1.065.866-1.93 1.93-1.93 1.065 0 1.931.865 1.931 1.93s-.866 1.93-1.93 1.93zm0-4.875A2.948 2.948 0 0 0 4.858 7.5a2.948 2.948 0 0 0 2.944 2.945A2.948 2.948 0 0 0 10.747 7.5a2.948 2.948 0 0 0-2.945-2.945z"/></g><g><path fill="#e1306c" d="M11.677 2.412c-.321 0-.637.13-.864.357-.228.227-.359.543-.359.866 0 .32.131.637.36.865.226.227.542.358.863.358.323 0 .637-.131.865-.358.228-.228.358-.544.358-.865 0-.323-.13-.639-.358-.866a1.23 1.23 0 0 0-.865-.357z"/></g></g></g></g></g></svg>