<svg xmlns="http://www.w3.org/2000/svg" width="19" height="15" viewBox="0 0 19 15"><g><g><path fill="#1da1f2" d="M18.764 1.776c-.687.3-1.418.5-2.18.597A3.764 3.764 0 0 0 18.247.282a7.564 7.564 0 0 1-2.4.916 3.784 3.784 0 0 0-6.547 2.588c0 .3.026.588.088.863A10.713 10.713 0 0 1 1.588.69a3.81 3.81 0 0 0-.518 1.913 3.79 3.79 0 0 0 1.68 3.145 3.738 3.738 0 0 1-1.71-.466v.042a3.802 3.802 0 0 0 3.033 3.719 3.777 3.777 0 0 1-.992.124c-.242 0-.487-.014-.717-.064a3.82 3.82 0 0 0 3.537 2.636 7.605 7.605 0 0 1-4.693 1.614c-.31 0-.608-.013-.906-.051A10.655 10.655 0 0 0 6.11 15C13.073 15 16.88 9.23 16.88 4.23c0-.167-.006-.329-.014-.49a7.55 7.55 0 0 0 1.897-1.964z"/></g></g></svg>