<svg xmlns="http://www.w3.org/2000/svg" width="16" height="15" viewBox="0 0 16 15"><g><g><g><g><g><path fill="#0077b5" d="M.502 15h3.365V4.879H.502zM2.207 0C1.056 0 .302.755.302 1.748c0 .972.732 1.75 1.86 1.75h.023c1.173 0 1.903-.778 1.903-1.75C4.066.755 3.358 0 2.207 0zM16 9.196c0-3.108-1.66-4.555-3.874-4.555-1.787 0-2.586.984-3.033 1.672v.033H9.07l.022-.033V4.88H5.727c.046.95 0 10.121 0 10.121h3.366V9.348c0-.303.023-.604.112-.82.243-.606.796-1.232 1.726-1.232 1.218 0 1.704.929 1.704 2.29V15H16z"/></g></g></g></g></g></svg>